<svg xmlns="http://www.w3.org/2000/svg" version="1.0" width="512.000000pt" height="512.000000pt" viewBox="0 0 512.000000 512.000000" preserveAspectRatio="xMidYMid meet">

<g transform="translate(0.000000,512.000000) scale(0.100000,-0.100000)" fill="#b28a49" stroke="#b28a49" stroke-width="60" stroke-linejoin="round" stroke-linecap="round">
<path d="M3235 4950 l-150 -150 858 -858 857 -857 150 150 150 150 -858 858 -857 857 -150 -150z"/>
<path d="M2482 4197 l-362 -362 117 -116 118 -116 45 9 c25 5 115 7 200 5 124 -4 174 -9 250 -30 294 -78 528 -266 660 -532 92 -185 129 -378 109 -581 -5 -59 -12 -110 -14 -114 -2 -3 49 -59 113 -123 l117 -117 365 365 365 365 -855 855 c-470 470 -857 855 -860 855 -3 0 -168 -163 -368 -363z"/>
<path d="M2530 2976 c-185 -183 -354 -342 -430 -402 -222 -176 -612 -446 -975 -675 l-150 -95 -91 -2 c-241 -4 -441 -89 -614 -262 -111 -111 -175 -211 -219 -345 -53 -160 -64 -290 -36 -450 60 -344 318 -623 662 -717 109 -29 326 -31 433 -4 220 56 416 191 540 371 42 61 103 194 123 270 20 72 37 227 30 272 -6 34 56 137 320 533 352 527 472 676 855 1062 l305 308 -43 87 c-59 120 -187 249 -307 311 -44 23 -85 42 -90 42 -4 0 -145 -137 -313 -304z m-1440 -1503 c101 -33 176 -81 247 -156 113 -121 164 -248 165 -406 0 -118 -13 -172 -65 -280 -75 -155 -215 -266 -393 -311 -372 -95 -743 195 -744 582 0 116 36 232 107 340 143 218 428 315 683 231z"/>
</g>
</svg>