<svg xmlns="http://www.w3.org/2000/svg" version="1.0" width="512.000000pt" height="512.000000pt" viewBox="0 0 512.000000 512.000000" preserveAspectRatio="xMidYMid meet">

<g transform="translate(0.000000,512.000000) scale(0.100000,-0.100000)" fill="#b28a49" stroke="none">
<path d="M1010 4794 c-44 -19 -963 -934 -991 -986 -24 -47 -24 -99 0 -146 11 -21 314 -331 683 -699 662 -660 663 -662 722 -678 69 -20 127 -15 186 15 103 52 170 151 170 249 l0 56 154 -154 c85 -85 152 -159 149 -164 -11 -18 -251 -192 -398 -289 -165 -109 -354 -209 -443 -234 -31 -8 -83 -24 -116 -34 l-59 -20 -36 29 c-20 15 -46 33 -58 40 -30 15 -109 14 -141 -3 -32 -17 -185 -171 -201 -203 -28 -55 -6 -156 44 -203 l23 -22 -19 -44 c-80 -187 -59 -438 53 -629 51 -87 172 -207 258 -258 153 -89 353 -119 523 -78 48 11 100 27 116 35 27 14 30 14 51 -9 49 -52 149 -72 208 -41 40 21 189 176 201 209 25 67 7 141 -50 203 -19 20 -19 21 0 80 11 32 27 86 36 118 23 84 128 283 230 438 113 171 245 350 256 346 14 -5 145 -184 247 -337 108 -163 213 -360 237 -447 9 -32 25 -86 36 -118 19 -59 19 -60 0 -80 -57 -62 -75 -136 -50 -203 12 -33 161 -188 201 -209 59 -31 159 -11 208 41 21 23 24 23 51 9 16 -8 68 -24 116 -35 170 -41 369 -11 523 78 80 47 213 178 259 256 87 149 120 340 87 505 -9 45 -25 101 -35 126 l-19 44 23 22 c52 49 72 149 41 208 -17 32 -171 185 -203 201 -56 29 -147 7 -209 -51 -20 -18 -24 -18 -60 -4 -22 8 -68 22 -104 31 -163 41 -493 236 -798 473 l-84 65 154 154 153 153 6 -63 c9 -101 69 -186 169 -237 59 -30 117 -35 186 -15 59 16 60 18 722 678 369 368 672 678 683 699 23 45 24 86 4 136 -22 51 -934 966 -990 993 -49 23 -96 24 -139 4 -17 -8 -331 -315 -698 -683 -665 -666 -667 -667 -683 -726 -20 -69 -15 -127 15 -186 52 -103 151 -170 249 -170 l56 -1 -172 -169 c-95 -94 -177 -170 -183 -170 -6 0 -88 76 -183 170 l-172 169 53 1 c95 0 189 60 242 153 38 67 46 130 25 204 -16 58 -22 63 -678 722 -451 452 -675 669 -702 682 -48 22 -88 23 -135 3z m-267 -726 l-453 -453 -60 60 -60 60 452 452 453 453 60 -60 60 -60 -452 -452z m4147 -393 l-60 -60 -452 452 -453 453 60 60 60 60 452 -452 453 -453 -60 -60z m-237 -237 c-32 -32 -62 -58 -68 -58 -13 0 -895 882 -895 895 0 5 26 35 57 67 l58 58 452 -452 453 -453 -57 -57z m-3276 900 c29 -29 53 -57 53 -63 0 -13 -882 -895 -895 -895 -5 0 -35 26 -67 57 l-58 58 447 447 c246 247 452 448 458 448 5 0 33 -23 62 -52z m585 -585 c254 -255 399 -408 403 -424 8 -33 -15 -81 -52 -107 -23 -16 -50 -20 -153 -24 -179 -7 -283 -50 -395 -164 -102 -104 -155 -244 -155 -412 0 -79 -3 -99 -21 -123 -27 -39 -73 -62 -108 -54 -18 4 -155 134 -426 405 l-400 400 450 450 c247 248 452 450 455 450 3 0 184 -179 402 -397z m2053 -53 l450 -450 -400 -400 c-271 -271 -408 -401 -426 -405 -34 -8 -81 15 -107 52 -16 23 -20 50 -24 153 -4 104 -9 137 -31 193 -49 127 -139 229 -256 291 -94 49 -167 66 -286 66 l-101 0 -36 38 c-43 44 -53 73 -38 104 12 22 789 808 800 808 3 0 208 -202 455 -450z m-1795 -924 c115 -115 209 -210 208 -211 -2 -1 -47 -39 -102 -84 l-98 -83 -206 206 c-194 193 -205 206 -195 229 26 56 141 161 170 155 7 -2 107 -97 223 -212z m940 198 c41 -27 100 -87 122 -122 l21 -34 -44 -46 c-24 -26 -118 -123 -209 -217 -573 -588 -1051 -1258 -1150 -1610 -15 -55 -38 -123 -50 -151 -29 -65 -23 -91 35 -153 l44 -47 -59 -59 -60 -59 -49 48 c-59 58 -91 62 -171 21 -188 -95 -436 -60 -601 85 -186 163 -238 420 -134 655 37 84 34 107 -22 166 l-47 50 59 59 59 60 41 -39 c71 -69 90 -73 170 -36 29 13 82 31 117 40 363 91 1047 580 1668 1192 118 117 220 213 225 213 6 0 22 -7 35 -16z m-138 -893 c341 -260 628 -427 843 -490 55 -16 123 -39 151 -51 65 -29 91 -23 153 35 l47 44 59 -59 59 -60 -47 -48 c-56 -57 -59 -82 -22 -167 100 -226 59 -461 -110 -630 -169 -167 -423 -212 -625 -110 -80 41 -112 37 -171 -21 l-49 -48 -60 59 -59 59 44 47 c58 62 64 88 35 153 -12 28 -34 92 -47 141 -54 200 -195 446 -461 807 l-94 128 122 145 c67 80 123 145 125 145 2 0 50 -35 107 -79z"/>
<path d="M1360 3661 c-264 -86 -299 -432 -55 -552 284 -140 557 194 366 447 -51 67 -131 108 -220 111 -36 1 -77 -1 -91 -6z m134 -176 c38 -22 62 -70 60 -120 -3 -70 -56 -118 -125 -117 -128 2 -172 162 -63 228 38 24 90 26 128 9z"/>
<path d="M3578 3651 c-100 -40 -157 -106 -184 -212 -47 -183 95 -362 288 -362 261 0 394 310 214 501 -75 81 -218 114 -318 73z m169 -171 c118 -78 38 -258 -100 -226 -110 27 -125 182 -22 234 40 21 84 19 122 -8z"/>
<path d="M1236 1409 c-111 -38 -181 -102 -234 -216 -23 -49 -27 -71 -27 -148 0 -80 3 -97 32 -157 40 -85 106 -151 191 -191 60 -28 77 -32 157 -32 80 0 97 4 157 32 85 40 151 106 191 191 28 60 32 77 32 157 0 80 -4 97 -31 155 -37 79 -79 128 -142 168 -98 63 -219 78 -326 41z m230 -184 c92 -60 122 -192 62 -290 -84 -136 -292 -130 -368 8 -16 32 -22 58 -22 104 0 95 60 172 156 202 44 14 122 2 172 -24z"/>
<path d="M3645 1409 c-167 -54 -276 -218 -262 -391 12 -140 96 -261 225 -321 60 -28 77 -31 157 -31 80 0 97 3 157 31 85 40 151 105 191 191 28 60 32 77 32 157 0 80 -4 97 -31 155 -37 79 -79 128 -142 168 -97 62 -217 77 -327 41z m231 -184 c122 -78 128 -270 8 -350 -148 -98 -336 0 -334 172 1 95 60 172 156 202 44 14 122 2 170 -24z"/>
</g>
</svg>